<svg xmlns="http://www.w3.org/2000/svg" width="24" height="24" viewBox="0 0 24 24">
  <g id="bathroom" transform="translate(-1584 136)">
    <rect id="Rectangle_38" data-name="Rectangle 38" width="24" height="24" transform="translate(1584 -136)" fill="none"/>
    <g id="bathtub" transform="translate(1588 -149.067)">
      <g id="Group_72" data-name="Group 72" transform="translate(-1 16.067)">
        <g id="Group_71" data-name="Group 71">
          <path id="Path_10" data-name="Path 10" d="M16.812,25.442H16.5V18.879a2.8,2.8,0,0,0-2.812-2.812A2.506,2.506,0,0,0,11.2,18.6a1.544,1.544,0,0,0-1.261,1.534.3.3,0,0,0,.312.312h2.5a.3.3,0,0,0,.312-.312,1.545,1.545,0,0,0-1.237-1.53,1.891,1.891,0,0,1,1.862-1.908,2.174,2.174,0,0,1,2.187,2.187v6.562H6.47a1.545,1.545,0,0,0-1.532-1.25,1.631,1.631,0,0,0-1.25-.625,1.545,1.545,0,0,0-1.375.844,1.856,1.856,0,0,0-.813-.219,1.545,1.545,0,0,0-1.532,1.25h-.03A.921.921,0,0,0-1,26.379a.921.921,0,0,0,.937.937H.313l.843,3.344a2.2,2.2,0,0,0,2.125,1.656h.25l-.406.813a.276.276,0,0,0,.125.406.188.188,0,0,0,.125.031.328.328,0,0,0,.281-.156L4.2,32.317h8.672l.531,1.062a.3.3,0,0,0,.281.188c.063,0,.094,0,.125-.063a.329.329,0,0,0,.125-.406l-.391-.783a2.213,2.213,0,0,0,2.048-1.623l.851-3.375h.368a.937.937,0,1,0,0-1.875Zm-4.406-5.625H10.625a.95.95,0,0,1,.906-.625A.91.91,0,0,1,12.406,19.817Zm-10.906,5a1.05,1.05,0,0,1,.75.344.283.283,0,0,0,.312.094A.3.3,0,0,0,2.781,25a.968.968,0,0,1,.937-.813.873.873,0,0,1,.813.469.314.314,0,0,0,.344.156h.094a.91.91,0,0,1,.875.625H.625A.91.91,0,0,1,1.5,24.817ZM15.031,30.5A1.6,1.6,0,0,1,13.5,31.692H3.312A1.6,1.6,0,0,1,1.781,30.5L.969,27.317H15.781Zm1.781-3.813H-.063a.3.3,0,0,1-.312-.312.3.3,0,0,1,.312-.312H16.812a.312.312,0,0,1,0,.625Z" transform="translate(1 -16.067)"/>
          <path id="Path_11" data-name="Path 11" d="M297.98,153.381a.3.3,0,0,0,.312-.312v-.156a.312.312,0,0,0-.625,0v.156A.3.3,0,0,0,297.98,153.381Z" transform="translate(-286.73 -147.6)"/>
          <path id="Path_12" data-name="Path 12" d="M297.98,187.7a.313.313,0,0,0,.312-.312v-.344a.312.312,0,1,0-.625,0v.344A.3.3,0,0,0,297.98,187.7Z" transform="translate(-286.73 -180.484)"/>
          <path id="Path_13" data-name="Path 13" d="M297.98,225.915a.3.3,0,0,0,.312-.312v-.156a.312.312,0,0,0-.625,0v.156A.3.3,0,0,0,297.98,225.915Z" transform="translate(-286.73 -217.478)"/>
          <path id="Path_14" data-name="Path 14" d="M332.113,153.381a.3.3,0,0,0,.312-.312v-.156a.312.312,0,1,0-.625,0v.156A.3.3,0,0,0,332.113,153.381Z" transform="translate(-319.613 -147.6)"/>
          <path id="Path_15" data-name="Path 15" d="M331.8,187.389a.3.3,0,0,0,.313.312.313.313,0,0,0,.312-.312v-.344a.312.312,0,0,0-.625,0Z" transform="translate(-319.613 -180.483)"/>
          <path id="Path_16" data-name="Path 16" d="M331.8,225.6a.312.312,0,0,0,.625,0v-.156a.312.312,0,0,0-.625,0Z" transform="translate(-319.613 -217.477)"/>
          <path id="Path_17" data-name="Path 17" d="M366.247,153.381a.3.3,0,0,0,.312-.312v-.156a.312.312,0,1,0-.625,0v.156A.3.3,0,0,0,366.247,153.381Z" transform="translate(-352.497 -147.6)"/>
          <path id="Path_18" data-name="Path 18" d="M365.933,187.389a.3.3,0,0,0,.312.312.313.313,0,0,0,.313-.312v-.344a.312.312,0,1,0-.625,0v.344Z" transform="translate(-352.496 -180.483)"/>
          <path id="Path_19" data-name="Path 19" d="M365.933,225.6a.312.312,0,0,0,.625,0v-.156a.312.312,0,1,0-.625,0Z" transform="translate(-352.496 -217.477)"/>
        </g>
      </g>
    </g>
  </g>
</svg>
