<svg xmlns="http://www.w3.org/2000/svg" width="24" height="24" viewBox="0 0 24 24">
  <g id="bedroom" transform="translate(-1558 136)">
    <rect id="Rectangle_37" data-name="Rectangle 37" width="24" height="24" transform="translate(1558 -136)" fill="none"/>
    <g id="bed" transform="translate(1560 -164)">
      <g id="Group_66" data-name="Group 66" transform="translate(0 32)">
        <g id="Group_65" data-name="Group 65" transform="translate(0 0)">
          <path id="Path_7" data-name="Path 7" d="M19.175,41.75H18.85v-.975a1.625,1.625,0,0,0-.975-1.487V34.275a.325.325,0,0,0-.195-.3,1.286,1.286,0,0,0,.195-.677,1.3,1.3,0,0,0-2.6,0,1.287,1.287,0,0,0,.181.65H4.044a1.287,1.287,0,0,0,.181-.65,1.3,1.3,0,0,0-2.6,0,1.286,1.286,0,0,0,.2.677.325.325,0,0,0-.2.3v5.013A1.625,1.625,0,0,0,.65,40.775v.975H.325A.325.325,0,0,0,0,42.075v4.55a.325.325,0,0,0,.325.325H.65v1.625a.325.325,0,0,0,.325.325h1.3a.325.325,0,0,0,.325-.325V46.95H16.9v1.625a.325.325,0,0,0,.325.325h1.3a.325.325,0,0,0,.325-.325V46.95h.325a.325.325,0,0,0,.325-.325v-4.55A.325.325,0,0,0,19.175,41.75Zm-2.6-9.1a.65.65,0,1,1-.65.65A.65.65,0,0,1,16.575,32.65Zm-13.65,0a.65.65,0,1,1-.65.65A.65.65,0,0,1,2.925,32.65Zm-.65,1.95h14.95v4.55H15.917a1.608,1.608,0,0,0,.333-.975v-.65A1.627,1.627,0,0,0,14.625,35.9h-2.6A1.627,1.627,0,0,0,10.4,37.525v.65a1.608,1.608,0,0,0,.333.975H8.767a1.608,1.608,0,0,0,.333-.975v-.65A1.627,1.627,0,0,0,7.475,35.9h-2.6A1.627,1.627,0,0,0,3.25,37.525v.65a1.608,1.608,0,0,0,.333.975H2.275ZM15.6,37.525v.65a.975.975,0,0,1-.975.975h-2.6a.975.975,0,0,1-.975-.975v-.65a.975.975,0,0,1,.975-.975h2.6A.975.975,0,0,1,15.6,37.525Zm-7.15,0v.65a.975.975,0,0,1-.975.975h-2.6a.975.975,0,0,1-.975-.975v-.65a.975.975,0,0,1,.975-.975h2.6A.975.975,0,0,1,8.45,37.525ZM1.3,40.775a.975.975,0,0,1,.975-.975h14.95a.975.975,0,0,1,.975.975v.975H1.3Zm.65,7.475H1.3v-1.3h.65Zm16.25,0h-.65v-1.3h.65Zm.65-1.95H.65V42.4h18.2Z" transform="translate(0 -32)"/>
        </g>
      </g>
      <g id="Group_68" data-name="Group 68" transform="translate(1.3 45)">
        <g id="Group_67" data-name="Group 67" transform="translate(0 0)">
          <path id="Path_8" data-name="Path 8" d="M33.625,352h-1.3a.325.325,0,0,0,0,.65h1.3a.325.325,0,0,0,0-.65Z" transform="translate(-32 -352)"/>
        </g>
      </g>
      <g id="Group_70" data-name="Group 70" transform="translate(3.9 45)">
        <g id="Group_69" data-name="Group 69" transform="translate(0 0)">
          <path id="Path_9" data-name="Path 9" d="M109.975,352H96.325a.325.325,0,0,0,0,.65h13.65a.325.325,0,0,0,0-.65Z" transform="translate(-96 -352)"/>
        </g>
      </g>
    </g>
  </g>
</svg>
