<svg xmlns="http://www.w3.org/2000/svg" width="50" height="50" viewBox="0 0 50 50">
  <g id="call" transform="translate(-970 -464)">
    <g id="Rectangle_76" data-name="Rectangle 76" transform="translate(970 464)" fill="none" stroke="#ffc400" stroke-width="1">
      <rect width="50" height="50" rx="4" stroke="none"/>
      <rect x="0.5" y="0.5" width="49" height="49" rx="3.5" fill="none"/>
    </g>
    <g id="telephone" transform="translate(980.988 474)">
      <g id="Group_162" data-name="Group 162" transform="translate(0.006)">
        <path id="Path_73" data-name="Path 73" d="M22.058,62.541a2.032,2.032,0,0,0-3.072,0c-.718.712-1.437,1.424-2.143,2.149a.423.423,0,0,1-.592.109c-.465-.254-.96-.459-1.406-.736a22.283,22.283,0,0,1-5.372-4.889,12.727,12.727,0,0,1-1.925-3.084.442.442,0,0,1,.109-.567c.718-.694,1.418-1.406,2.125-2.119a2.04,2.04,0,0,0-.006-3.145c-.561-.567-1.123-1.123-1.684-1.69-.579-.579-1.153-1.165-1.738-1.738a2.045,2.045,0,0,0-3.072.006c-.724.712-1.418,1.443-2.155,2.143a3.5,3.5,0,0,0-1.1,2.36,10,10,0,0,0,.773,4.3,26.151,26.151,0,0,0,4.642,7.732,28.724,28.724,0,0,0,9.513,7.442,13.758,13.758,0,0,0,5.269,1.533,3.862,3.862,0,0,0,3.314-1.262c.616-.688,1.31-1.316,1.962-1.974a2.053,2.053,0,0,0,.012-3.127Q23.79,64.258,22.058,62.541Z" transform="translate(-0.006 -43.353)" fill="#ffc400"/>
        <path id="Path_74" data-name="Path 74" d="M244.4,104.583l2.227-.38a10,10,0,0,0-8.456-8.2l-.314,2.239a7.727,7.727,0,0,1,6.543,6.344Z" transform="translate(-223.498 -90.205)" fill="#ffc400"/>
        <path id="Path_75" data-name="Path 75" d="M252.484,4.7A16.423,16.423,0,0,0,243.068,0l-.314,2.239A14.33,14.33,0,0,1,254.88,13.991l2.227-.38A16.543,16.543,0,0,0,252.484,4.7Z" transform="translate(-228.102)" fill="#ffc400"/>
      </g>
    </g>
  </g>
</svg>
