<svg id="Layer_1" data-name="Layer 1" xmlns="http://www.w3.org/2000/svg" viewBox="0 0 771.21 217.86"><defs><style>.cls-1{fill:#00adee;}.cls-2{fill:#808184;}.cls-3{fill:#6d6e70;}</style></defs><title>logo</title><polygon class="cls-1" points="177.93 88.24 90.69 1 1.82 89.87 1.82 95.67 9.35 103.2 89.65 22.9 155.12 88.37 165.37 88.37 165.37 98.62 167.89 101.14 177.93 91.1 177.93 88.24"/><path class="cls-2" d="M1.94,218.86V89.08h125.4V105.3H16.69V218.86Z"/><path class="cls-2" d="M177.84,88.25V218H52.44V201.8H163.09V88.25Z"/><path class="cls-3" d="M192.26,137.7V88.17h47.85v6.19H197.89V137.7Z"/><path class="cls-3" d="M245.75,137.7V88.17h47.86V137.7H288V94.36h-36.6V137.7ZM257,119.13v-6.19h25.33v6.19Z"/><path class="cls-3" d="M299.24,137.7V88.17H347.1v31H310.5v-6.19h31V94.36h-36.6V137.7Z"/><path class="cls-3" d="M352.73,137.7v-6.19h22.52V94.36H352.73V88.17h47.86v6.19H380.88v37.15h19.71v6.19Z"/><path class="cls-3" d="M406.22,137.7V88.17h42.23V75.79h5.63V137.7Zm42.23-6.19V94.36h-36.6v37.15Z"/><path class="cls-3" d="M509.39,137.7V88.17h42.23V75.79h5.63V137.7Zm42.23-6.19V94.36H515v37.15Z"/><path class="cls-3" d="M562.88,137.7V88.17h47.86V116H568.51v15.48h42.23v6.19Zm42.23-27.86V94.36h-36.6v15.48Z"/><path class="cls-3" d="M616.37,137.7V109.84H653V116H622v15.48h36.6V94.36H616.37V88.17h47.86V137.7Z"/><path class="cls-3" d="M669.86,137.7V88.17h5.63v43.34h42.23v6.19Z"/><path class="cls-3" d="M723.35,137.7v-6.19h42.23V116H723.35V88.17h47.86v6.19H729v15.48h42.23V137.7Z"/><path class="cls-3" d="M218.88,211.56V184.88h25.79v3.33H221.92v23.35Z"/><path class="cls-3" d="M247.71,211.56V184.88H273.5v15H250.74v8.34H273.5v3.33Zm22.75-15v-8.34H250.74v8.34Z"/><path class="cls-3" d="M276.53,211.56v-15h19.72v3.34H279.56v8.34h19.73v-20H276.53v-3.33h25.79v26.68Z"/><path class="cls-3" d="M305.35,211.56V184.88h3v23.35h22.75v3.33Z"/><path class="cls-3" d="M352.38,211.56V184.88h25.79v15H355.41v8.34h22.76v3.33Zm22.75-15v-8.34H355.41v8.34Z"/><path class="cls-3" d="M381.2,211.56v-3.33H404v-8.34H381.2v-15H407v3.33H384.24v8.34H407v15Z"/><path class="cls-3" d="M422.16,211.56V188.21H410v-3.33h27.31v3.33H425.19v23.35Z"/><path class="cls-3" d="M440.36,211.56v-15h19.72v3.34H443.4v8.34h19.72v-20H440.36v-3.33h25.79v26.68Z"/><path class="cls-3" d="M481.32,211.56V188.21H469.19v-3.33h27.3v3.33H484.35v23.35Z"/><path class="cls-3" d="M499.52,211.56V184.88h25.79v15H502.56v8.34h22.75v3.33Zm22.76-15v-8.34H502.56v8.34Z"/><path class="cls-3" d="M546.55,211.56V178.2h3v6.68h22.75v26.68Zm22.75-3.33v-20H549.59v20Z"/><path class="cls-3" d="M575.37,211.56V184.88h25.79v3.33H578.41v23.35Z"/><path class="cls-3" d="M604.19,211.56V184.88H630v26.68ZM627,208.23v-20H607.23v20Z"/><path class="cls-3" d="M633,211.56V184.88h3v20l18.21-20h4.55l-11.38,12.51,12.9,14.17h-4.55l-10.63-11.67-10.61,11.67Z"/><path class="cls-3" d="M661.84,211.56V184.88h25.79v15H664.88v8.34h22.75v3.33Zm22.76-15v-8.34H664.88v8.34Z"/><path class="cls-3" d="M690.67,211.56V184.88h25.78v3.33H693.7v23.35Z"/><path class="cls-3" d="M719.49,211.56v-3.33h22.75v-8.34H719.49v-15h25.79v3.33H722.52v8.34h22.76v15Z"/></svg>