<svg xmlns="http://www.w3.org/2000/svg" width="51.265" height="19" viewBox="0 0 51.265 19">
  <g id="waveblack" transform="translate(-657 -766)">
    <g id="Group_40" data-name="Group 40" transform="translate(657.115 775.402)">
      <path id="Path_1" data-name="Path 1" d="M396.568,466.547l-8.74,8.621.648.657,8.092-7.982,8.414,8.3,8.417-8.3,8.417,8.3,8.419-8.3,8.095,7.983.647-.657-8.742-8.621-8.419,8.3-8.417-8.3-8.417,8.3Z" transform="translate(-387.828 -466.547)" fill="#222"/>
    </g>
    <g id="Group_41" data-name="Group 41" transform="translate(657 770.654)">
      <path id="Path_2" data-name="Path 2" d="M396.329,476.4l-8.74,8.621.648.657,8.093-7.982,8.414,8.3,8.417-8.3,8.417,8.3,8.418-8.3,8.095,7.982.647-.657L430,476.4l-8.418,8.3-8.417-8.3-8.417,8.3Z" transform="translate(-387.589 -476.396)" fill="#222"/>
    </g>
    <g id="Group_42" data-name="Group 42" transform="translate(657 766)">
      <path id="Path_3" data-name="Path 3" d="M396.329,486.047l-8.74,8.621.648.657,8.093-7.982,8.414,8.3,8.417-8.3,8.417,8.3,8.418-8.3,8.095,7.983.647-.657L430,486.048l-8.418,8.3-8.417-8.3-8.417,8.3Z" transform="translate(-387.589 -486.047)" fill="#222"/>
    </g>
  </g>
</svg>
