<svg xmlns="http://www.w3.org/2000/svg" width="50" height="50" viewBox="0 0 50 50">
  <g id="wp" transform="translate(-913 -464)">
    <g id="Rectangle_75" data-name="Rectangle 75" transform="translate(913 464)" fill="none" stroke="#4caf50" stroke-width="1">
      <rect width="50" height="50" rx="4" stroke="none"/>
      <rect x="0.5" y="0.5" width="49" height="49" rx="3.5" fill="none"/>
    </g>
    <g id="whatsapp" transform="translate(923 474)">
      <path id="Path_71" data-name="Path 71" d="M15,0H15A14.991,14.991,0,0,0,2.856,23.792L.986,29.364l5.766-1.843A15,15,0,1,0,15,0Z" fill="#4caf50"/>
      <path id="Path_72" data-name="Path 72" d="M124.711,131.409a4.233,4.233,0,0,1-2.944,2.117c-.784.167-1.808.3-5.254-1.129-4.408-1.826-7.247-6.306-7.468-6.6a8.567,8.567,0,0,1-1.781-4.524,4.789,4.789,0,0,1,1.534-3.651,2.179,2.179,0,0,1,1.534-.538c.186,0,.352.009.5.017.441.019.662.045.952.741.362.872,1.243,3.024,1.348,3.246a.893.893,0,0,1,.064.812,2.592,2.592,0,0,1-.486.688c-.221.255-.431.45-.652.724-.2.238-.431.493-.176.934a13.314,13.314,0,0,0,2.434,3.024,11.028,11.028,0,0,0,3.517,2.169.948.948,0,0,0,1.058-.167,18.155,18.155,0,0,0,1.172-1.553.837.837,0,0,1,1.076-.326c.4.141,2.548,1.2,2.989,1.419s.731.326.838.512A3.736,3.736,0,0,1,124.711,131.409Z" transform="translate(-100.979 -110.227)" fill="#fafafa"/>
    </g>
  </g>
</svg>
